<svg width="96" height="96" xmlns="http://www.w3.org/2000/svg" xmlns:xlink="http://www.w3.org/1999/xlink" overflow="hidden"><defs><clipPath id="clip0"><rect x="27" y="282" width="96" height="96"/></clipPath></defs><g clip-path="url(#clip0)" transform="translate(-27 -282)"><path d="M75 292C54 292 37 309 37 330 37 351 54 368 75 368 96 368 113 351 113 330 113 330 113 330 113 330 113 309 96 292 75 292 75 292 75 292 75 292ZM111 330.6C111 330.6 110.9 330.6 110.9 330.7L109.1 332.2 100.6 321.7 101.3 308.3 103.5 308.4C103.6 308.4 103.7 308.4 103.8 308.4 108.5 314.6 111 322.2 111 330 111 330.2 111 330.4 111 330.6L111 330.6ZM86.7 296C86.7 296.1 86.7 296.3 86.8 296.4L87.6 298.6 75 303.4 62.5 298.6 63.4 296.6C63.5 296.4 63.5 296.2 63.5 296 71 293.5 79.1 293.5 86.6 296 86.6 295.9 86.7 296 86.7 296ZM46.2 308.4C46.4 308.5 46.5 308.5 46.7 308.5L48.9 308.4 49.6 321.8 41.1 332.3 39.3 330.8C39.2 330.7 39.1 330.7 39 330.6 39 330.4 39 330.2 39 330 39 322.2 41.5 314.6 46.2 308.4ZM45.5 350.6C45.5 350.5 45.6 350.5 45.6 350.4L46.2 348.2 59.3 351.7 66.7 363 64.8 364.2C64.7 364.3 64.6 364.4 64.5 364.5 56.8 362.1 50.1 357.2 45.5 350.6ZM67 365.1 69.5 363.6 60.6 349.9 44.8 345.7 44.1 348.4C41.3 343.8 39.6 338.6 39.2 333.2L41.4 335.1 51.7 322.5 50.9 306.3 47.9 306.5C51.5 302.3 56.1 299 61.2 296.8L59.9 299.6 75 305.5 90.2 299.7 89.1 296.9C94.1 299 98.5 302.3 102.1 306.3L99.4 306.1 98.6 322.4 108.8 335 110.8 333.3C110.3 338.5 108.7 343.6 106 348.2L105.3 345.6 89.5 349.8 80.6 363.5 83.1 365.1C77.9 366.3 72.4 366.3 67 365.1ZM85.8 364.4C85.7 364.3 85.6 364.1 85.5 364.1L83.6 362.9 90.9 351.6 104 348.1 104.6 350.3C104.6 350.3 104.6 350.4 104.7 350.4 100.1 357.1 93.4 362 85.8 364.4L85.8 364.4Z"/><path d="M88 328 75 318 62 328 67 343 83 343 88 328ZM75 341 68.4 341 64.3 328.7 75 320.5 85.7 328.7 81.6 341 75 341Z"/></g></svg>