<svg width="96" height="96" xmlns="http://www.w3.org/2000/svg" xmlns:xlink="http://www.w3.org/1999/xlink" overflow="hidden"><defs><clipPath id="clip0"><rect x="25" y="264" width="96" height="96"/></clipPath></defs><g clip-path="url(#clip0)" transform="translate(-25 -264)"><path d="M70.22 336.81C57.676 334.744 48.4835 323.883 48.52 311.17 48.5389 309.595 48.6995 308.026 49 306.48L49.08 306.48 50.91 309.65C51.4623 310.608 52.6868 310.937 53.645 310.385 54.6032 309.833 54.9323 308.608 54.38 307.65L50.13 300.3C49.8654 299.842 49.4304 299.508 48.92 299.37 48.4069 299.232 47.86 299.304 47.4 299.57L40 303.84C39.0213 304.352 38.6429 305.56 39.1549 306.539 39.6669 307.518 40.8754 307.896 41.8541 307.384 41.9039 307.358 41.9526 307.33 42 307.3L45.06 305.53C44.7041 307.389 44.5233 309.277 44.52 311.17 44.4746 325.826 55.0618 338.352 69.52 340.75L69.86 340.75C70.9646 340.838 71.9316 340.015 72.02 338.91 72.1084 337.805 71.2846 336.838 70.18 336.75Z"/><path d="M104.52 311.17C104.524 307.597 103.891 304.051 102.65 300.7 102.263 299.664 101.11 299.138 100.075 299.525 99.0395 299.912 98.5134 301.065 98.9 302.1 103.907 315.558 97.0567 330.527 83.5986 335.534 83.5026 335.57 83.4064 335.605 83.31 335.64L83.31 335.64 85.13 332.46C85.6823 331.499 85.351 330.272 84.39 329.72 83.429 329.168 82.2023 329.499 81.65 330.46L77.45 337.83C76.9005 338.788 77.2317 340.01 78.1899 340.56 78.1899 340.56 78.19 340.56 78.19 340.56L85.56 344.77C86.521 345.322 87.7477 344.991 88.3 344.03 88.8523 343.069 88.521 341.842 87.56 341.29L84.44 339.52C96.5057 335.334 104.576 323.941 104.52 311.17Z"/><path d="M87.52 291.14C86.4154 291.14 85.52 292.035 85.52 293.14 85.52 294.245 86.4154 295.14 87.52 295.14L95.74 295.14C95.8166 295.145 95.8934 295.145 95.97 295.14 96.3549 295.14 96.731 295.025 97.05 294.81L97.19 294.72 97.25 294.67 97.25 294.67 97.38 294.57C97.7715 294.197 97.9952 293.681 98 293.14L98 284.66C98 283.555 97.1046 282.66 96 282.66 94.8954 282.66 94 283.555 94 284.66L94 288.31 94 288.31C81.389 277.564 62.4543 279.076 51.7082 291.687 51.6619 291.741 51.6159 291.795 51.57 291.85 50.8576 292.695 50.965 293.958 51.81 294.67 52.655 295.382 53.9176 295.275 54.63 294.43 63.8139 283.491 80.1023 282.009 91.11 291.11Z"/></g></svg>